<svg xmlns="http://www.w3.org/2000/svg" width="71" height="24" fill="none"><path fill="#95928E" d="M11.8 3.667c-1.468-1.223-3.262-2.12-5.22-2.446-.489.244-.978.57-1.467.978H5.03C3.32 1.71 1.443 2.444.546 3.993c-.978 1.631-.57 3.67.653 4.893v.081c-.082.49-.082.979-.082 1.468 0 2.854 1.142 5.382 3.017 7.34.082.08.163 0 .163-.082-.407-1.142-.652-2.284-.652-3.588 0-1.468.326-2.773.815-3.996 0 0 0-.082.082-.082 1.142-.163 2.283-.815 2.936-1.957.407-.815.489-1.63.407-2.446v-.081a10.85 10.85 0 0 1 3.833-1.713c.163 0 .163-.163.081-.163Z"/><path fill="#95928E" d="M5.602 13.534c-.408 1.875-.244 3.914.49 5.79.489.326 1.06.57 1.549.733l.081.082a3.941 3.941 0 0 0 7.665 0s0-.082.082-.082a9.729 9.729 0 0 0 1.305-.652c2.446-1.386 4.158-3.67 4.81-6.197 0-.082-.08-.164-.162-.082-.734.897-1.713 1.713-2.773 2.365-1.223.734-2.528 1.141-3.914 1.305h-.081c-.734-.897-1.876-1.55-3.1-1.55-.896 0-1.63.245-2.282.734H9.19a10.158 10.158 0 0 1-3.425-2.446c0-.082-.081-.082-.163 0Z"/><path fill="#95928E" d="M17.263 13.941c1.794-.652 3.506-1.794 4.73-3.343 0-.571 0-1.142-.082-1.713v-.081c1.304-1.223 1.63-3.262.652-4.811-.897-1.631-2.854-2.284-4.566-1.794h-.082c-.408-.326-.815-.571-1.223-.816-2.446-1.386-5.3-1.712-7.828-1.06-.082 0-.082.163 0 .163 1.141.245 2.283.653 3.425 1.223 1.223.734 2.283 1.631 3.098 2.691v.082c-.408 1.06-.408 2.365.245 3.506a3.857 3.857 0 0 0 1.794 1.631s.081 0 .081.082c.163 1.386 0 2.772-.407 4.159.081.081.081.081.163.081ZM33.245 20.057v-7.828c0-.816-.407-1.305-1.386-1.305-.326 0-.652.082-.979.163v8.97h-4.485V2.036h4.567v5.87a6.225 6.225 0 0 1 2.202-.407c3.017 0 4.566 1.55 4.566 4.24v8.318h-4.485ZM45.314 20.383c-3.833 0-5.708-1.386-5.708-4.81v-7.91h4.484v7.91c0 .815.408 1.14 1.224 1.14.407 0 .733-.08.978-.08v-8.97h4.485v11.742c-1.223.57-3.425.978-5.463.978ZM59.094 20.383c-4.24 0-6.523-2.283-6.523-6.523 0-3.833 1.957-6.28 5.871-6.28.408 0 .979.082 1.305.164V2.036h4.485v17.45c-1.06.49-2.936.897-5.138.897Zm.653-9.377c-.163-.082-.49-.164-.816-.164-1.223 0-1.875 1.142-1.875 2.936 0 2.12.652 3.099 1.957 3.099.326 0 .57 0 .734-.082v-5.79ZM66.515 20.057V2.036H71v18.02h-4.485Z"/></svg>