<svg xmlns="http://www.w3.org/2000/svg" width="98" height="23" fill="none"><path fill="#95928E" d="M17.668 4.1c-3.435 0-5.625 2.318-5.625 5.539 0 3.392 2.17 5.646 5.818 5.646 1.61 0 3.434-.558 4.55-1.718l-1.673-1.65c-.6.624-1.868.989-2.833.989-1.846 0-2.984-.944-3.156-2.254h8.265c.408-4.363-1.804-6.551-5.346-6.551Zm-2.876 4.38c.388-1.375 1.551-2.062 2.963-2.062 1.502 0 2.575.687 2.747 2.061h-5.71ZM28.252 12.774c-.816 0-1.373-.494-1.373-1.504V6.698h2.94V4.443H26.9V1.438l-2.619.279v9.554c0 2.641 1.504 3.951 3.801 3.864a5.846 5.846 0 0 0 2.168-.45l-.73-2.233c-.394.2-.826.31-1.267.322ZM48.098 4.144c-1.073 0-2.168.192-2.983 1.502l-.193-1.226h-2.427v10.584h2.62v-5.58c0-1.953 1.266-2.683 2.64-2.683.859 0 1.223.107 1.76.558l1.182-2.276c-.58-.58-1.504-.88-2.599-.88ZM55.805 4.208c-3.371 0-5.474 2.49-5.474 5.516 0 3.05 2.06 5.518 5.495 5.518s5.517-2.468 5.517-5.518c0-3.026-2.167-5.516-5.538-5.516Zm.021 8.63c-1.91 0-2.876-1.503-2.876-3.114 0-1.587.987-3.133 2.876-3.133 1.76 0 2.878 1.55 2.878 3.133 0 1.61-.967 3.113-2.878 3.113ZM70.336 9.833c0 1.61-1.094 2.961-2.704 2.961-1.681 0-2.555-1.223-2.555-2.833V4.42h-2.62v5.559c0 3.285 1.847 5.194 4.38 5.194 1.48 0 2.49-.517 3.585-1.588l.172 1.438h2.34V4.42h-2.598v5.413ZM80.424 4.25c-1.331 0-2.404.537-3.477 1.59l-.172-1.44h-2.34v10.601h2.597v-5.41c0-1.61 1.095-2.963 2.705-2.963 1.68 0 2.556 1.224 2.556 2.834V15h2.619V9.442c0-3.323-1.998-5.192-4.488-5.192ZM94.809 0v5.86c-.623-1.095-2.362-1.699-3.479-1.699-3.09 0-5.388 1.89-5.388 5.54 0 3.477 2.34 5.538 5.453 5.538 1.293 0 2.597-.43 3.414-1.696l.17 1.46h2.448V0h-2.618Zm-3.246 12.823c-1.674 0-3.006-1.267-3.006-3.113 0-1.91 1.332-3.091 3.006-3.091a3.02 3.02 0 0 1 3.07 3.09c.004 1.905-1.413 3.114-3.07 3.114Z"/><path fill="#95928E" d="M17.668 4.1c-3.435 0-5.625 2.318-5.625 5.539 0 3.392 2.17 5.646 5.818 5.646 1.61 0 3.434-.558 4.55-1.718l-1.673-1.65c-.6.624-1.868.989-2.833.989-1.846 0-2.984-.944-3.156-2.254h8.265c.408-4.363-1.804-6.551-5.346-6.551Zm-2.876 4.38c.388-1.375 1.551-2.062 2.963-2.062 1.502 0 2.575.687 2.747 2.061h-5.71ZM28.252 12.774c-.816 0-1.373-.494-1.373-1.504V6.698h2.94V4.443H26.9V1.438l-2.619.279v9.554c0 2.641 1.504 3.951 3.801 3.864a5.846 5.846 0 0 0 2.168-.45l-.73-2.233c-.394.2-.826.31-1.267.322ZM48.098 4.144c-1.073 0-2.168.192-2.983 1.502l-.193-1.226h-2.427v10.584h2.62v-5.58c0-1.953 1.266-2.683 2.64-2.683.859 0 1.223.107 1.76.558l1.182-2.276c-.58-.58-1.504-.88-2.599-.88ZM55.805 4.208c-3.371 0-5.474 2.49-5.474 5.516 0 3.05 2.06 5.518 5.495 5.518s5.517-2.468 5.517-5.518c0-3.026-2.167-5.516-5.538-5.516Zm.021 8.63c-1.91 0-2.876-1.503-2.876-3.114 0-1.587.987-3.133 2.876-3.133 1.76 0 2.878 1.55 2.878 3.133 0 1.61-.967 3.113-2.878 3.113ZM70.336 9.833c0 1.61-1.094 2.961-2.704 2.961-1.681 0-2.555-1.223-2.555-2.833V4.42h-2.62v5.559c0 3.285 1.847 5.194 4.38 5.194 1.48 0 2.49-.517 3.585-1.588l.172 1.438h2.34V4.42h-2.598v5.413ZM80.424 4.25c-1.331 0-2.404.537-3.477 1.59l-.172-1.44h-2.34v10.601h2.597v-5.41c0-1.61 1.095-2.963 2.705-2.963 1.68 0 2.556 1.224 2.556 2.834V15h2.619V9.442c0-3.323-1.998-5.192-4.488-5.192ZM94.809 0v5.86c-.623-1.095-2.362-1.699-3.479-1.699-3.09 0-5.388 1.89-5.388 5.54 0 3.477 2.34 5.538 5.453 5.538 1.293 0 2.597-.43 3.414-1.696l.17 1.46h2.448V0h-2.618Zm-3.246 12.823c-1.674 0-3.006-1.267-3.006-3.113 0-1.91 1.332-3.091 3.006-3.091a3.02 3.02 0 0 1 3.07 3.09c.004 1.905-1.413 3.114-3.07 3.114ZM39.218 4.596c-1.249-.7-3.749-.752-5.102-.388-1.712.47-2.756 1.779-2.837 3.413l2.482.568c.198-1.247.57-1.664 1.63-1.835.776-.13 1.871-.1 2.476.517.335.344.371.506.32 1.068-.025.268-.565.357-.886.427-1.163.258-2.985.387-4.128.7-2.253.618-2.567 3.346-1.439 4.752 1.164 1.454 4.088 1.78 5.729.705.248-.163.487-.34.8-.561v1.014h2.698V12.26c.008-1.61.072-3.22.013-4.826a3.321 3.321 0 0 0-1.756-2.839Zm-2.054 7.969a3.519 3.519 0 0 1-1.112.378c-.491.095-1.002.181-1.49.075-.342-.075-.684-.24-.864-.54a1.035 1.035 0 0 1-.142-.59c.012-.2.088-.392.218-.544.15-.182.344-.322.564-.404.685-.302 1.444-.388 2.189-.466l1.221-.13.307-.033.146-.015c.055 0 .07-.01.072.044.001.183-.013.366-.041.546a2.287 2.287 0 0 1-.13.524c-.159.488-.493.899-.938 1.155ZM5.494 15.24C2.061 15.24 0 12.771 0 9.724c0-3.026 2.103-5.516 5.473-5.516h6.553s-.28 1.726-1.918 2.384h-4.6C3.62 6.59 2.622 8.135 2.622 9.72c0 1.61.967 3.112 2.876 3.112 1.91 0 2.876-1.502 2.876-3.112a3.321 3.321 0 0 0-.937-2.327h3.103c.316.735.477 1.527.474 2.327 0 1.738-.678 3.287-1.896 4.297 1.512.895 1.896 2.114 1.896 3.41 0 3.013-2.303 4.873-5.47 4.873-2.962 0-5.226-1.687-5.505-4.317l2.665-.285c.156 1.264 1.391 2.077 2.844 2.077 1.552 0 2.768-.841 2.768-2.347s-1.414-2.19-2.764-2.198l-.058.01Z"/></svg>