<svg xmlns="http://www.w3.org/2000/svg" width="131" height="23" fill="none"><path fill="#95928E" d="M37.74 8.798c-.588-.5-1.35-.85-2.2-.85-.587 0-1.35.35-1.35 1.024 0 .762.85 1.024 1.438 1.198l.849.261c1.786.501 3.136 1.35 3.136 3.398 0 1.263-.349 2.548-1.263 3.397-1.024.85-2.287 1.198-3.572 1.198a7.45 7.45 0 0 1-4.42-1.438l1.35-2.635c.85.675 1.786 1.263 2.874 1.263.763 0 1.612-.413 1.612-1.263 0-.936-1.263-1.263-1.96-1.437-2.047-.588-3.397-1.11-3.397-3.572 0-2.547 1.786-4.246 4.333-4.246 1.264 0 2.81.414 3.898 1.023L37.74 8.798Zm9.081 3.833c-.174-.85-.936-1.35-1.698-1.35-.85 0-1.612.5-1.786 1.35h3.484Zm2.81 1.698H43.25c0 1.264.675 1.96 1.873 1.96.675 0 1.11-.174 1.437-.762h2.875c-.501 2.113-2.374 2.962-4.334 2.962-2.81 0-4.922-1.612-4.922-4.573 0-2.875 1.96-4.574 4.748-4.574 2.961 0 4.66 1.873 4.66 4.748v.24h.044Zm3.724-2.983c.675-1.263 1.611-1.612 2.809-1.612h.588v2.875c-.501-.261-.85-.261-1.263-.261-1.699 0-2.113 1.11-2.113 2.548v3.484h-2.983V9.8h2.962v1.546Zm8.318 2.81 2.047-4.334h3.398l-4.508 8.493h-1.96l-4.42-8.493h3.396l2.047 4.333Zm8.82 4.159h-3.136v-8.58h3.136v8.58Zm.175-11.455a1.7 1.7 0 0 1-1.7 1.699 1.7 1.7 0 0 1-1.698-1.7 1.7 1.7 0 0 1 1.699-1.698 1.7 1.7 0 0 1 1.699 1.699Zm7.556 5.51c-.5-.349-1.023-.588-1.611-.588a2.087 2.087 0 0 0-2.113 2.112c0 1.263.937 2.112 2.113 2.112.5 0 1.023-.261 1.524-.588v2.548c-.762.349-1.437.501-2.112.501-2.548 0-4.66-1.873-4.66-4.486 0-2.722 2.112-4.66 4.834-4.66a4.51 4.51 0 0 1 2.047.5v2.549h-.022Zm7.383.26c-.174-.849-.937-1.35-1.699-1.35-.85 0-1.611.502-1.786 1.35h3.485Zm2.787 1.7h-6.359c0 1.263.675 1.96 1.873 1.96.675 0 1.11-.175 1.437-.763h2.875c-.5 2.113-2.374 2.962-4.334 2.962-2.809 0-4.921-1.612-4.921-4.573 0-2.875 1.96-4.574 4.747-4.574 2.962 0 4.66 1.873 4.66 4.748v.24h.022Zm6.033 3.985H91.29V8.558h-2.81V5.837h8.646V8.56h-2.722v9.756h.022Zm6.446 0h-3.05v-8.58h3.05v8.58Zm.174-11.455a1.7 1.7 0 0 1-1.699 1.699 1.7 1.7 0 0 1-1.698-1.7 1.7 1.7 0 0 1 1.698-1.698 1.7 1.7 0 0 1 1.699 1.699Zm4.747 11.455h-3.049v-6.033h-.936v-2.46h.936V7.187h3.049v2.635h1.699v2.46h-1.699v6.033Zm4.748-4.247c0 1.11.675 1.96 1.96 1.96 1.263 0 1.96-.85 1.96-1.96 0-1.023-.675-1.96-1.96-1.96-1.198 0-1.96.937-1.96 1.96Zm6.881 4.247h-3.048v-.937c-.501.85-1.612 1.263-2.548 1.263-2.548 0-4.334-2.112-4.334-4.573 0-2.46 1.786-4.573 4.247-4.573 1.023 0 1.959.348 2.635 1.11v-.849h3.048v8.559Zm3.986-7.383c.762-1.023 1.611-1.35 2.809-1.35 2.287 0 3.223 1.437 3.223 3.571v5.27h-3.049v-4.159c0-.85.174-2.2-1.35-2.2-1.263 0-1.612.937-1.612 1.96v4.421h-3.048v-8.58h3.048v1.067h-.021Zm7.556-1.611v.348h.262c.174 0 .501 0 .501-.174s-.175-.174-.349-.174h-.414Zm.915 1.263h-.261l-.349-.675h-.348v.675h-.174V9.059h.588c.261 0 .501.087.501.414 0 .261-.175.414-.414.414l.457.697Zm-1.677-.762c0 .588.501 1.11 1.111 1.11.588 0 1.11-.5 1.11-1.11 0-.588-.5-1.111-1.11-1.111-.61.022-1.111.435-1.111 1.11Zm-.261 0c0-.763.588-1.35 1.35-1.35.762 0 1.35.587 1.35 1.35a1.33 1.33 0 0 1-1.35 1.35c-.762-.066-1.35-.675-1.35-1.35ZM2.112 20.34s1.263.5 1.263 1.024c0 0-.087.413-.5.413-.414 0-1.024-.675-1.024-1.023 0-.349.261-.414.261-.414Zm-1.35-6.359c-.087 0-.087-.087 0 0l-.087-.087C.414 13.98 0 14.308 0 14.918c0 2.286 6.185 2.547 9.582 6.707.348.414.936.675 1.524.675.763 0 1.525-.087 2.2-.174a.187.187 0 0 0 .174-.174v-.262C9.32 16.028 1.437 17.378.762 13.981ZM9.67 6.773c-.414-.414-1.524-.087-2.112.414-.588.5-.349.849-.349.849a2.952 2.952 0 0 1 1.786-1.11c.414.021.675-.153.675-.153Zm12.718 1.176s-.85.174-1.611-.675c0 0 .348 0 .413-.414-.065 0 .436.936 1.198 1.089Zm-.261 3.92s-.174.936-1.263.936c-1.198 0-2.2-1.611-2.548-5.422.261.413.588.849.762 1.35 0-.501.261-1.438-.937-2.287 0 0 3.136.675 3.224 3.898 0 .588-.349 1.11-.501 1.35 0 0-.174.087-.087.349.087.174.348.174.588-.087.24-.262.762-.61.762-.087Zm-4.4 1.764s-.849 1.611-2.046 1.611c-.501 0-.85-.348-.85-.762 0-.414.588-2.112 3.05-2.112.587 0 1.023.087 1.023.5.087.262-.501.85-1.176.763Zm0-8.058s-.348-.087-.26-.588c.086-.174.086-.174.086-.414 0-.261.088-.5.262-.588 0 0 .348 0 .348.937-.021.413-.435.653-.435.653Zm-1.11 0c-.5-.087-.174-.85-.5-.85-.175 0-.175.85-.35.763-.348-.261-.086-.85-.086-1.11 0-.262.174-.589-.087-.415-.262.175-.414.588-.501.937-.087.348.087.5.261.936.174.414-.087.262-.087.262-1.263-.763-.348-2.461-.348-2.461.588-.937 1.437-.675 1.437-.675.174.087.174.174.174.348s.087.261.261.349c.262.087.349.348.349.849 0 .566-.349 1.154-.523 1.067Zm1.96-.087 2.113.675s.413.762-.414.5a13.534 13.534 0 0 0-1.525-.413s-.348-.24-.174-.762ZM8.145 8.71c-1.525.261-2.047-.174-2.047-.588 0-1.198 3.484-2.112 4.42-2.112.175.26-.174.26-.26.675-.175.413-.502.588-1.024.675-.501.087-1.024.348-1.35.588-.349.261 0 .414.587.261.588-.174.675.087.937 0 .261-.087 0-.414.174-.414.174-.087.5.175.5.175l.85.588-1.023.5c-.087 0-.175.087-.175.262 0 .174.501.174.763.174.174 0 .261.348.261.348-.261.349-1.024.349-1.024.349.175.348 1.111.261 1.264.348.174 0 .174.262.348.675.087.414.675.588.675.588.174.675-.588.85-1.11.85-3.115-.196-2.766-3.942-2.766-3.942Zm.326-4.748c-.087 0-.087 0 0 0-.26-1.263.262-2.722.262-2.722S7.47 2.265 7.535 3.963c-1.11 0-2.722.088-3.659.937-1.35 1.11-1.524 3.223-1.611 3.81 0 0 0 .088-.087.088H2.09c-.349-.174-1.024-.85-.501-2.287C2.265 4.64 4.312.915 8.297.653c0 0 1.263-.087 2.047.414 0 0 .087 0 .087.087v.087c-.348.262-1.437 1.263-1.785 2.81 0 .087-.088.087-.088.087 0-.175-.087-.175-.087-.175Zm2.984 5.01s.348 1.61 1.11 2.199c0 0 0 .174-.26.174-.262 0-.676-.348-.85-1.263-.174-.85 0-1.11 0-1.11ZM12.544 4.9c-.937 0-1.35-.85-1.35-.85s1.11 1.024 2.635.175c0 .087-.349.675-1.285.675ZM24.26 6.272c-.261-.501-.588-.85-1.35-1.024-.675-.174-1.263-.087-1.699.262l-1.35-.501c-.174-.349-.261-.675-.414-.937a.893.893 0 0 0-.414-.5c-.936-.501-3.397-1.786-4.333-.501 0 0-.087.087-.087.174l-.349-.087c-.174-.501-.675-.937-1.35-1.11-.414-.088-.85-.088-1.198.086-.261.087-.261.414 0 .501l1.11.414c.262.087.415.348.262.588-.087.261-.348.414-.588.261 0 0-.675-.174-1.198-.348-.26-.087-.5.174-.413.413.174.501.675 1.024 1.35 1.198.588.174 1.198 0 1.611-.261l.262.087c0 .588.5 1.35.936 1.612.675.413 1.263.087 1.96-.349 0 0 1.786 1.35.937 5.335-2.2.262-3.05 1.024-3.812 1.873-.5-.174-2.047-.348-2.874-.087.261-.261.588-.5 1.11-.675.262-.087.349-.261.349-.5 0 0 1.024-.35 1.024-.676 0-.348-1.264-.348-1.786-3.049-.087-.348-.175-.588-.675-.762 0 0-.175-.261.087-.588.261-.348.348-.414.261-.675-.087-.261-.414-.414-.414-.414V5.62s-1.023-.763-1.023-1.873c0-1.11 1.437-2.374 1.785-2.722V.936s0-.087-.087-.087C11.39.501 10.453 0 8.93 0 2.983 0 1.633 5.335.349 7.883v.175c1.263 2.548 3.31 2.286 3.484 4.486.087 1.698-.349 1.698-.675 1.698-.262 0-.675-.26-.85-.413h-.087s-.087.087 0 .087c.175.413.588 1.437 1.96 1.437.675 0 .85-.588.85-1.198v-1.96c0-.174-.088-.348-.175-.5-.413-.414-1.437-1.35-1.437-2.113 0-.348.261-.5.5-.5.502 0 1.024.761 1.438 1.785.087.261.262.414.349.5h.087v-.086c-.174-.588-.174-1.198-.262-1.438 0-.087-.087-.261-.174-.348-.414-.349-1.437-1.35-1.437-2.875 0-2.047 3.31-1.873 3.985-1.873.174.676.588 1.024.85 1.111-1.024.349-3.224 1.11-3.224 2.374 0 1.35 2.287 1.263 2.287 1.263s-.348 2.722 2.2 3.571c0 0-.414.414-1.786.414-1.263 0-1.873-.588-2.2-1.263 0 0 0-.087-.087-.087 0 0-.087 0-.087.087-.087.174-.087.501.087.85.349.587.85.936.85 1.698 0 .588-.501.936-.763 1.024.501.087 2.81.675 4.334 1.437.174-.087 1.524-.936 1.611-2.112 0 0 .088-.763-1.023-.85 0 0 .5-.174 1.35-.174.85 0 1.786.675.087 4.247v.087c.262.174 2.2 1.437 3.485 2.635h.087s.087 0 .087-.087c.174-.175.5-.763.675-2.2 0-.174.087-.261.261-.261.762-.262 3.31-1.024 4.421-2.548 1.263-1.786 1.786-2.047 1.786-2.047s.85-.501.5-1.786c-.174-.675-1.197-2.374-2.199-4.16.262.175.501.262.762.349.588.174 1.198.087 1.612-.174.087-.087.174-.174.174-.262 0-.087-.087-.174-.174-.26l-1.11-.415c-.262-.087-.414-.413-.35-.675.088-.261.415-.414.676-.348l1.024.348c.087 0 .174 0 .26-.087-.02-.109-.108-.022-.108-.174ZM9.234 9.473s-.414.087-.349.762c.087.588.588.588.588.588-.414-.5-.24-1.35-.24-1.35ZM1.85 17.88c1.524.85 4.922 1.873 5.597 3.659 0 0 .261.414-1.11.414-1.024 0-1.264-.262-1.96-1.111-1.024-1.198-3.137-1.96-3.137-2.875-.065.087.022-.414.61-.087Z"/></svg>