<svg xmlns="http://www.w3.org/2000/svg" width="118" height="23" fill="none"><path fill="#95928E" d="M77.951 19.26a5.826 5.826 0 0 0 4.186-1.622l2.065 2.22c-1.37 1.398-3.266 2.442-6.213 2.442-5.068 0-8.334-3.338-8.334-7.85 0-4.475 3.435-7.85 7.865-7.85 5.03 0 7.864 3.804 7.62 9.062H73.278c.413 2.2 1.97 3.598 4.673 3.598Zm3.604-6.097c-.319-2.032-1.539-3.542-3.998-3.542-2.29 0-3.866 1.286-4.28 3.543h8.278ZM0 19.093l9.14-9.23H.207v-2.89h13.158v2.965l-9.122 9.21h9.253v2.89H0v-2.945Zm23.744.168a5.826 5.826 0 0 0 4.186-1.623l2.064 2.22c-1.37 1.398-3.266 2.442-6.213 2.442-5.049 0-8.333-3.338-8.333-7.85 0-4.475 3.434-7.85 7.864-7.85 5.03 0 7.865 3.804 7.62 9.062H19.07c.432 2.2 1.971 3.598 4.674 3.598Zm3.622-6.097c-.319-2.033-1.539-3.543-3.997-3.543-2.29 0-3.867 1.286-4.28 3.543h8.277Zm23.313 1.305c0-4.83 3.622-7.831 7.62-7.831 2.009 0 3.923.876 5.05 2.256V0h3.228v22.001h-3.229v-2.088c-1.163 1.473-3.078 2.387-5.086 2.387-3.867 0-7.583-3.04-7.583-7.831Zm12.857-.038c0-2.684-2.046-4.885-4.805-4.885-2.703 0-4.805 2.145-4.805 4.885 0 2.741 2.102 4.904 4.805 4.904 2.76.019 4.805-2.181 4.805-4.904Zm23.706 4.363 2.928-1.51a4.353 4.353 0 0 0 3.905 2.2c1.82 0 2.778-.932 2.778-1.995 0-1.212-1.765-1.473-3.68-1.864-2.59-.541-5.274-1.38-5.274-4.494 0-2.386 2.29-4.587 5.875-4.55 2.835 0 4.937 1.12 6.12 2.928l-2.722 1.492c-.695-1.063-1.896-1.716-3.416-1.716-1.746 0-2.628.84-2.628 1.809 0 1.081 1.407 1.38 3.604 1.864 2.496.541 5.33 1.361 5.33 4.494 0 2.088-1.82 4.885-6.156 4.848-3.154 0-5.387-1.268-6.664-3.506Zm21.586-3.486-2.553 2.778V22h-3.228V0h3.228v14.394l6.851-7.458h3.923l-5.931 6.451 6.1 8.614h-3.66l-4.73-6.693Zm-67.91-8.689c-3.847 0-7.057 2.48-7.057 6.563v8.82h3.303V13.61c0-2.48 1.427-3.953 3.867-3.953s3.66 1.473 3.66 3.953v8.39h3.285v-8.8c0-4.102-3.21-6.582-7.058-6.582Z"/></svg>