<svg xmlns="http://www.w3.org/2000/svg" width="64" height="23" fill="none"><path fill="#95928E" fill-rule="evenodd" d="M27.527.627c-.872.836-.872 2.23 0 3.101.87.871 2.3.871 3.136 0a2.167 2.167 0 0 0 0-3.1c-.837-.837-2.265-.837-3.136 0Zm17.282 5.784-2.02.314c-3.834.87-6.342 2.125-6.342 6.307v8.397l3.484.697v-8.537c0-1.951 1.115-2.857 2.857-3.17l2.021-.384V6.411ZM18.19 21.5l3.484.697v-9.513c0-4.564-3.554-6.202-6.028-6.202-1.673 0-2.962.418-4.147 1.568-1.22-1.15-2.683-1.603-3.867-1.603-1.708 0-3.171.732-4.147 1.917V6.76L0 7.457v14.042l3.484.697v-9.652c0-1.533 1.115-2.614 2.823-2.614 1.672 0 2.787 1.08 2.787 2.614v8.955l3.485.697v-9.652c0-1.533 1.115-2.614 2.787-2.614 1.673 0 2.788 1.08 2.788 2.614v8.955h.034Zm45.227-7.143c0 4.39-3.59 7.944-7.98 7.944-4.425 0-8.014-3.554-8.014-7.944 0-4.356 3.59-7.91 8.014-7.91 4.39 0 7.98 3.554 7.98 7.91Zm-7.98 4.634a4.632 4.632 0 0 1-4.634-4.634c0-2.544 2.09-4.6 4.634-4.6 2.544 0 4.6 2.056 4.6 4.6.035 2.578-2.021 4.634-4.6 4.634Zm-24.6 3.31-3.484-.801V7.352l3.485-.697V22.3Z" clip-rule="evenodd"/></svg>