<svg xmlns="http://www.w3.org/2000/svg" width="75" height="25" fill="none"><path fill="#95928E" fill-rule="evenodd" d="M28.131 4.02c.262.449.267 1 .014 1.453a7.4 7.4 0 0 0-1.139 4.683v-.005c.308 4.61-2.26 9.442-6.934 12.165-4.675 2.722-10.143 2.563-13.99.014v.004a7.375 7.375 0 0 0-4.633-1.326 1.458 1.458 0 0 1-1.251-.733c-.257-.448-.266-1-.014-1.452a7.4 7.4 0 0 0 1.14-4.684v.005C1.02 9.535 3.587 4.702 8.261 1.984c4.675-2.722 10.143-2.563 13.99-.014a7.384 7.384 0 0 0 4.633 1.327c.508.004.985.28 1.246.723ZM49.298 22.04v-9.287h6.566v2.073h-3.979v1.597h3.451v1.784h-3.45v1.75h4.113v2.083h-6.7Zm22.522 0v-3.945l-.103.037c-1.004.345-2.05.541-3.11.583h-.08v3.325H65.83v-9.287h2.699v3.89h.08c.064 0 1.395-.01 3.16-.594l.056-.018v-3.278h2.7v9.287H71.82Zm-39.01-.01v-9.254h6.528v2.26H35.5v1.826h3.05v1.96H35.5v3.209h-2.69Zm9.853-10.464V2.28h6.738v2.073h-4.156v1.592h3.451v1.784h-3.45V9.48h4.113v2.087h-6.696Zm15.11-.004V2.274h2.704v7.018h3.685v2.27h-6.388Zm-7.33 0V2.274h2.703v7.018h3.684v2.27h-6.387Zm19.154.243c-.985 0-1.793-.187-2.615-.607a4.424 4.424 0 0 1-1.835-1.705c-.434-.733-.65-1.597-.65-2.573s.216-1.84.65-2.573a4.413 4.413 0 0 1 1.83-1.704c.822-.42 1.63-.602 2.615-.602.986 0 1.793.186 2.615.602.762.378 1.401.971 1.836 1.704.434.733.653 1.597.653 2.573s-.22 1.84-.653 2.573a4.424 4.424 0 0 1-1.836 1.704c-.817.42-1.625.608-2.61.608Zm0-7.49a2.446 2.446 0 0 0-1.265.322c-.379.21-.687.532-.888.915-.205.392-.313.855-.313 1.378 0 .523.103.985.313 1.377.201.383.51.7.888.91a2.725 2.725 0 0 0 2.53 0c.383-.21.692-.522.897-.905.21-.392.318-.855.318-1.378 0-.518-.108-.985-.318-1.377a2.304 2.304 0 0 0-.892-.916 2.401 2.401 0 0 0-1.27-.326Zm-30.791 7.247V7.616l-.103.037c-1.004.341-2.05.542-3.11.584h-.08v3.325h-2.698V2.274h2.699v3.89h.08c.065 0 1.395-.01 3.16-.593l.057-.019V2.269h2.699v9.288h-2.704v.005Zm22.026 10.651c-.093 0-.187 0-.28-.005a5.692 5.692 0 0 1-2.045-.434c-.602-.257-1.097-.616-1.466-1.06-.168-.2-.304-.42-.411-.654l2.115-1.12c.047.233.15.457.294.644.187.234.425.416.7.528.323.135.668.21 1.019.215h.13c.234.004.467-.029.696-.09.21-.055.406-.158.57-.303a.71.71 0 0 0 .233-.49.628.628 0 0 0-.257-.56 1.753 1.753 0 0 0-.602-.29c-.229-.065-.588-.15-1.079-.247a13.023 13.023 0 0 1-1.858-.467 2.85 2.85 0 0 1-1.228-.85c-.341-.392-.5-.948-.472-1.653.023-.612.201-1.154.532-1.607.332-.452.794-.798 1.369-1.027a4.804 4.804 0 0 1 1.76-.308c.075 0 .154 0 .234.005.607.014 1.209.14 1.77.373.49.206.929.523 1.284.925.168.196.308.415.415.654l-1.938 1.027a1.224 1.224 0 0 0-.457-.747c-.271-.21-.617-.327-1.037-.346h-.098c-.187 0-.378.024-.556.075-.177.047-.34.145-.467.275a.705.705 0 0 0-.186.463c-.015.215.079.42.252.546.172.13.368.224.579.28.214.056.574.136 1.074.234.63.107 1.251.256 1.858.448.49.163.925.458 1.26.85.346.397.505.957.482 1.672a2.715 2.715 0 0 1-.603 1.648c-.378.467-.905.822-1.564 1.064a5.87 5.87 0 0 1-2.022.332Zm-12.673-.051a4.97 4.97 0 0 1-1.55-.234 5.15 5.15 0 0 1-.808-.35 4.833 4.833 0 0 1-.724-.495 5.366 5.366 0 0 1-1.111-1.275 6.658 6.658 0 0 1-.392-.719 7.514 7.514 0 0 1-.094-.22l-.018-.046h-.524v3.245H40.24v-9.292h4.212c.752 0 1.42.13 1.999.383.579.252 1.018.611 1.33 1.074.314.471.477 1.027.468 1.592.005.364-.07.729-.224 1.06a2.26 2.26 0 0 1-.654.813 4.413 4.413 0 0 1-1.163.616l-.084.028.07.14c.14.262.318.504.532.71.099.098.21.182.323.261.116.075.238.14.364.192.252.098.523.159.794.177v2.344h-.047v-.004Zm-5.22-5.142h1.18c.239 0 .477-.046.697-.144.21-.094.392-.234.532-.411a.981.981 0 0 0 .206-.617 1.02 1.02 0 0 0-.206-.63 1.313 1.313 0 0 0-.532-.41 1.707 1.707 0 0 0-.696-.146h-1.181v2.358Z" clip-rule="evenodd"/></svg>