<svg xmlns="http://www.w3.org/2000/svg" width="202" height="21" fill="none"><path fill="#95928E" d="M66.894 13.747a.739.739 0 0 0-1.017 0 4.815 4.815 0 0 1-3.234 1.247c-2.137 0-4.052-1.398-4.052-4.552 0-3.155 1.795-4.561 3.742-4.561a3.663 3.663 0 0 1 3.663 3.822h-4.99a.795.795 0 0 0-.794.794v.74h6.698a1 1 0 0 0 1.009-1.034c-.12-3.694-2.455-6.038-5.562-6.038-3.313 0-5.768 2.693-5.768 6.277a6 6 0 0 0 5.998 6.269 6.436 6.436 0 0 0 5.03-2.336l-.723-.628ZM87.656 5.3a10.13 10.13 0 0 1 4.441-1.056c3.314 0 5.141 1.716 5.141 4.87v7.366H96.11a.795.795 0 0 1-.795-.795v-.794a5.292 5.292 0 0 1-4.171 1.827c-2.177 0-4.521-1.207-4.521-3.814 0-2.606 1.947-3.972 5.18-3.972h2.026v.746a.795.795 0 0 1-.794.795h-1.049c-2.106 0-3.353.89-3.353 2.384 0 1.493 1.486 2.256 2.884 2.256 2.185 0 3.862-1.327 3.862-3.075V9.194c0-2.026-1.208-3.115-3.433-3.115a8.168 8.168 0 0 0-2.924.58.715.715 0 0 1-.969-.469l-.397-.89ZM41.412 2.147h-1.168a.795.795 0 0 1-.794-.795V.192h1.168a.795.795 0 0 1 .794.794v1.16ZM151.268 2.147H150.1a.794.794 0 0 1-.795-.795V.192h1.168a.794.794 0 0 1 .795.794v1.16ZM28.326 6.35a6.357 6.357 0 0 0-4.902-2.226 6.293 6.293 0 0 0 0 12.586 6.436 6.436 0 0 0 4.982-2.383l-.74-.7a.795.795 0 0 0-1.048 0 4.577 4.577 0 0 1-3.115 1.327 4.355 4.355 0 0 1-4.25-4.52 4.268 4.268 0 0 1 4.17-4.482A4.41 4.41 0 0 1 26.5 7.279a.747.747 0 0 0 1.056-.04l.771-.89ZM49.644 16.48a1.296 1.296 0 0 0 1.168-.794l4.902-11.26h-1.048a1.59 1.59 0 0 0-1.478.97l-3.48 8.39-3.505-8.374a1.589 1.589 0 0 0-1.477-.97h-1.089l4.863 11.26a1.296 1.296 0 0 0 1.144.778ZM36.581 14.375a4.577 4.577 0 0 1-1.827.468 1.644 1.644 0 0 1-1.875-1.875V6.191h3.742v-.97a.795.795 0 0 0-.794-.794h-2.948V.97a.795.795 0 0 0-.795-.794h-1.152v13.11a3.36 3.36 0 0 0 3.314 3.425 4.768 4.768 0 0 0 2.383-.549l-.047-1.787ZM40.245 16.48h1.168V5.221a.795.795 0 0 0-.795-.794h-1.152v11.275a.732.732 0 0 0 .779.778ZM85.002 2.647A8.636 8.636 0 0 0 78.646 0a8.145 8.145 0 0 0-8.248 8.414 8.096 8.096 0 0 0 8.144 8.375 8.637 8.637 0 0 0 6.54-2.892l-.795-.795a.794.794 0 0 0-1.049 0 6.642 6.642 0 0 1-4.64 1.876c-3.425 0-6.07-2.885-6.07-6.548 0-3.663 2.606-6.467 6.07-6.467a7.048 7.048 0 0 1 4.521 1.756.795.795 0 0 0 1.057-.08l.826-.993ZM114.004 4.165a4.77 4.77 0 0 0-4.164 2.264 4.144 4.144 0 0 0-3.822-2.264 4.33 4.33 0 0 0-3.702 1.986v-.93a.795.795 0 0 0-.795-.794h-1.168V16.48h1.168a.794.794 0 0 0 .795-.794V9.623c0-2.105 1.326-3.623 3.178-3.623 1.851 0 2.948 1.287 2.948 3.425v6.277a.794.794 0 0 0 .794.794h1.168V9.544c0-2.455 1.589-3.544 3.178-3.544 1.876 0 2.964 1.248 2.964 3.464v6.238a.795.795 0 0 0 .795.794h1.168v-7.46c-.04-2.996-1.756-4.871-4.505-4.871ZM128.091 4.165a5.285 5.285 0 0 0-4.442 2.383V5.221a.795.795 0 0 0-.794-.794h-1.168v14.97a.794.794 0 0 0 .794.794h1.168v-5.777a5.36 5.36 0 0 0 4.442 2.297c2.805 0 5.768-2.217 5.768-6.27 0-4.052-3.003-6.276-5.768-6.276Zm3.742 6.277c0 2.646-1.676 4.48-4.052 4.48a4.271 4.271 0 0 1-3.917-2.805 4.287 4.287 0 0 1-.255-1.675 4.28 4.28 0 0 1 2.517-4.115 4.275 4.275 0 0 1 1.655-.375c2.336 0 4.052 1.915 4.052 4.49ZM150.06 16.48h1.168V5.221a.794.794 0 0 0-.794-.794h-1.152V15.7a.795.795 0 0 0 .778.78ZM154.462 18.466a9.807 9.807 0 0 0 5.562 1.709c3.902 0 6.118-2.138 6.118-5.88V4.443h-1.168a.794.794 0 0 0-.794.794V6.35a5.69 5.69 0 1 0-4.521 9.194 5.49 5.49 0 0 0 4.521-2.297v1.089c0 2.614-1.518 4.092-4.203 4.092a7.572 7.572 0 0 1-3.973-1.128.72.72 0 0 0-.859.032.73.73 0 0 0-.19.238l-.493.898Zm9.702-8.613a4.068 4.068 0 0 1-1.284 2.881 4.066 4.066 0 0 1-2.959 1.092 3.858 3.858 0 0 1-3.704-2.433 3.86 3.86 0 0 1-.269-1.54 3.82 3.82 0 0 1 1.141-2.809 3.81 3.81 0 0 1 2.832-1.084 4.023 4.023 0 0 1 2.94 1.055 4.037 4.037 0 0 1 1.303 2.838ZM175.224 4.164a4.553 4.553 0 0 0-3.973 2.066V5.221a.794.794 0 0 0-.794-.794h-1.168V16.48h1.168a.794.794 0 0 0 .794-.795V9.567a3.37 3.37 0 0 1 .927-2.548 3.357 3.357 0 0 1 2.506-1.035c1.986 0 3.178 1.287 3.178 3.464v6.237a.795.795 0 0 0 .795.795h1.168V8.995c.039-2.916-1.756-4.83-4.601-4.83ZM198.679 10.163l-10.09 6.706a1.587 1.587 0 0 0-.692 1.319v1.676l12.229-8.025a2.077 2.077 0 0 0 .897-1.676 1.965 1.965 0 0 0-.897-1.669L187.897.541V2.13a1.593 1.593 0 0 0 .7 1.319l10.082 6.714Z"/><path fill="#95928E" d="M192.601 10.72a1.669 1.669 0 0 0 1.796 0l.858-.58-6.396-4.331a.62.62 0 0 0-.969.508v1.287l3.313 2.217 1.398.898ZM136.664 5.3a10.132 10.132 0 0 1 4.442-1.056c3.305 0 5.14 1.716 5.14 4.87v7.366h-1.128a.794.794 0 0 1-.795-.795v-.794a5.287 5.287 0 0 1-4.171 1.827c-2.185 0-4.521-1.207-4.521-3.814 0-2.606 1.947-3.972 5.181-3.972h2.026v.746a.795.795 0 0 1-.795.795h-1.025c-2.105 0-3.353.89-3.353 2.384 0 1.493 1.478 2.256 2.884 2.256 2.185 0 3.854-1.327 3.854-3.075V9.194c0-2.026-1.208-3.115-3.425-3.115a8.169 8.169 0 0 0-2.924.58.71.71 0 0 1-.616.007.713.713 0 0 1-.393-.476l-.381-.89ZM15.478 16.48h1.128L9.622 1.01A1.247 1.247 0 0 0 8.303.217a1.168 1.168 0 0 0-1.287.795L0 16.48h1.057a1.692 1.692 0 0 0 1.478-.938l1.478-3.234h5.561a.795.795 0 0 0 .795-.794v-1.073H4.807l3.52-7.795 5.697 12.84a1.588 1.588 0 0 0 1.454.994Z"/></svg>