<svg xmlns="http://www.w3.org/2000/svg" width="114" height="28" fill="none"><path fill="#95928E" d="M67.668 10.855c1.768 0 3.442 1.082 3.795 3.419H63.59c.33-2.051 1.863-3.419 4.079-3.419Zm3.544 6.876c-.602.938-1.764 1.659-3.355 1.659-2.193 0-3.867-1.202-4.268-3.324h9.88a6.06 6.06 0 0 0 .071-.92c0-3.3-2.307-6.224-5.87-6.224-3.678 0-6.178 2.711-6.178 6.201 0 3.534 2.524 6.201 6.319 6.201 2.357 0 4.15-1.061 5.186-2.668l-1.785-.925Z"/><path fill="#95928E" fill-rule="evenodd" d="M58.471 3.806h2.05v17.212h-2.05V3.806Z" clip-rule="evenodd"/><path fill="#95928E" d="M84.951 13.78v7.237H82.9v-7.12c0-1.934-1.108-3.018-2.923-3.018-1.887 0-3.42 1.108-3.42 3.89v6.248h-2.05V9.23h2.05v1.697c.873-1.39 2.17-2.004 3.823-2.004 2.758 0 4.574 1.84 4.574 4.858M96.261 15.123c0-2.405-1.815-4.22-4.196-4.22-2.358 0-4.173 1.815-4.173 4.22s1.815 4.22 4.173 4.22c2.38 0 4.196-1.815 4.196-4.22Zm2.051-11.317v17.212h-2.05v-2.029c-.944 1.442-2.452 2.335-4.457 2.335-3.277 0-5.965-2.712-5.965-6.201 0-3.49 2.688-6.201 5.965-6.201 2.004 0 3.513.895 4.456 2.334v-7.45h2.051Z"/><path fill="#95928E" fill-rule="evenodd" d="M99.967 3.806h2.05v17.212h-2.05V3.806Z" clip-rule="evenodd"/><path fill="#95928E" d="M54.815 15.123c0-2.405-1.815-4.22-4.196-4.22-2.358 0-4.173 1.815-4.173 4.22 0 2.404 1.815 4.22 4.173 4.22 2.38 0 4.196-1.816 4.196-4.22Zm2.052-5.893v11.787h-2.052v-2.028c-.943 1.442-2.451 2.335-4.455 2.335-3.278 0-5.966-2.712-5.966-6.201 0-3.49 2.688-6.202 5.966-6.202 2.004 0 3.512.896 4.455 2.335V9.23h2.052Z"/><path fill="#95928E" d="M41.352 18.748a6.386 6.386 0 0 1-2.21.395c-3.502 0-6.384-2.882-6.384-6.384 0-3.502 2.882-6.384 6.384-6.384 1.48 0 2.913.515 4.056 1.454.36.298.686.635.972 1.004l1.774-1.298a8.599 8.599 0 0 0-6.825-3.372c-4.714 0-8.593 3.88-8.593 8.593 0 4.714 3.88 8.593 8.593 8.593a8.594 8.594 0 0 0 5.26-1.797l-1.182-1.867a6.442 6.442 0 0 1-1.845 1.063ZM111.918 9.23v6.69c0 2.164-1.259 3.534-3.18 3.534-1.921 0-3.312-1.37-3.312-3.533V9.23h-2.075v6.49c0 3.4 2.119 5.608 5.387 5.608 2.827 0 3.268-1.788 3.268-1.833v2.407c0 2.384-1.037 3.731-3.201 3.731a3.198 3.198 0 0 1-3.173-2.754l-1.855.649a5.171 5.171 0 0 0 5.031 3.982c3.356 0 5.192-2.208 5.192-5.608V9.23h-2.082ZM16.696 16.097c-.788.7-1.772 1.57-3.557 1.57h-1.067c-1.292 0-2.466-.47-3.307-1.32-.821-.832-1.274-1.97-1.274-3.205v-1.46c0-1.235.452-2.373 1.274-3.205.84-.85 2.015-1.32 3.307-1.32h1.067c1.787 0 2.769.87 3.557 1.57.818.721 1.524 1.351 3.407 1.351.287 0 .574-.023.857-.068l-.006-.017a6.462 6.462 0 0 0-.396-.813L19.3 7A6.471 6.471 0 0 0 13.7 3.768h-2.517A6.472 6.472 0 0 0 5.586 7L4.327 9.18a6.473 6.473 0 0 0 0 6.464l1.259 2.18a6.471 6.471 0 0 0 5.598 3.232h2.517a6.471 6.471 0 0 0 5.599-3.232l1.258-2.176c.151-.262.283-.534.396-.813l.006-.016a5.341 5.341 0 0 0-.857-.073c-1.883 0-2.588.627-3.407 1.352"/><path fill="#95928E" d="M13.139 8.481h-1.067c-1.966 0-3.258 1.404-3.258 3.2v1.461c0 1.797 1.292 3.2 3.258 3.2h1.067c2.864 0 2.639-2.92 6.964-2.92.41 0 .819.038 1.221.113a6.454 6.454 0 0 0 0-2.246 6.674 6.674 0 0 1-1.221.112c-4.327 0-4.1-2.92-6.964-2.92Z"/><path fill="#95928E" d="M23.81 14.602a6.03 6.03 0 0 0-2.485-1.068v.022c-.077.43-.198.852-.36 1.258a4.728 4.728 0 0 1 2.053.846c0 .006-.003.013-.005.02a11.099 11.099 0 0 1-10.581 7.806c-6.075 0-11.074-5-11.074-11.074 0-6.075 5-11.074 11.074-11.074 4.844 0 9.151 3.178 10.58 7.806 0 .007.004.014.006.02a4.72 4.72 0 0 1-2.053.845c.162.407.283.829.36 1.26a.17.17 0 0 0 0 .02 6.029 6.029 0 0 0 2.484-1.067c.708-.525.572-1.117.464-1.467A12.44 12.44 0 0 0 12.412 0C5.603 0 0 5.603 0 12.412c0 6.809 5.603 12.412 12.412 12.412a12.44 12.44 0 0 0 11.861-8.755c.108-.35.244-.943-.464-1.467Z"/></svg>